REM DIRINDEX 1\2,1\3,1\4,1\5
REM DIRNAME folder01,folder02,folder03,folder04,folder05
TITLE ""
FILE "119.mp3" MP3
  TRACK 01 AUDIO
    TITLE "0:"
    INDEX 01 00:00:00
  TRACK 02 AUDIO
    TITLE "2:cjc046_2868"
    INDEX 01 00:00:13
  TRACK 03 AUDIO
    TITLE "0:"
    INDEX 01 00:01:19
  TRACK 04 AUDIO
    TITLE "3:cjc046_2869"
    INDEX 01 00:01:54
  TRACK 05 AUDIO
    TITLE "0:"
    INDEX 01 00:04:42
  TRACK 06 AUDIO
    TITLE "4:cjc046_2870"
    INDEX 01 00:04:58
  TRACK 07 AUDIO
    TITLE "0:"
    INDEX 01 00:05:67
  TRACK 08 AUDIO
    TITLE "2:cjc046_2871"
    INDEX 01 00:07:11
  TRACK 09 AUDIO
    TITLE "0:"
    INDEX 01 00:08:21
  TRACK 10 AUDIO
    TITLE "3:cjc046_2872"
    INDEX 01 00:08:44
  TRACK 11 AUDIO
    TITLE "0:"
    INDEX 01 00:09:49
  TRACK 12 AUDIO
    TITLE "4:cjc046_2873"
    INDEX 01 00:09:67
  TRACK 13 AUDIO
    TITLE "0:"
    INDEX 01 00:11:03
  TRACK 14 AUDIO
    TITLE "2:cjc046_2874"
    INDEX 01 00:12:12
  TRACK 15 AUDIO
    TITLE "0:"
    INDEX 01 00:13:16
  TRACK 16 AUDIO
    TITLE "3:cjc046_2875"
    INDEX 01 00:13:35
  TRACK 17 AUDIO
    TITLE "0:"
    INDEX 01 00:14:47
  TRACK 18 AUDIO
    TITLE "4:cjc046_2876"
    INDEX 01 00:14:56
  TRACK 19 AUDIO
    TITLE "0:"
    INDEX 01 00:15:62
  TRACK 20 AUDIO
    TITLE "2:cjc046_2877"
    INDEX 01 00:16:67
  TRACK 21 AUDIO
    TITLE "0:"
    INDEX 01 00:18:11
  TRACK 22 AUDIO
    TITLE "3:cjc046_2878"
    INDEX 01 00:18:39
  TRACK 23 AUDIO
    TITLE "0:"
    INDEX 01 00:19:40
  TRACK 24 AUDIO
    TITLE "4:cjc046_2879"
    INDEX 01 00:19:50
  TRACK 25 AUDIO
    TITLE "0:"
    INDEX 01 00:20:69
  TRACK 26 AUDIO
    TITLE "2:cjc046_2880"
    INDEX 01 00:22:05
  TRACK 27 AUDIO
    TITLE "0:"
    INDEX 01 00:23:14
  TRACK 28 AUDIO
    TITLE "3:cjc046_2881"
    INDEX 01 00:23:44
  TRACK 29 AUDIO
    TITLE "0:"
    INDEX 01 00:24:33
  TRACK 30 AUDIO
    TITLE "4:cjc046_2882"
    INDEX 01 00:24:43
  TRACK 31 AUDIO
    TITLE "0:"
    INDEX 01 00:25:52
  TRACK 32 AUDIO
    TITLE "2:cjc046_2883"
    INDEX 01 00:26:58
  TRACK 33 AUDIO
    TITLE "0:"
    INDEX 01 00:28:06
  TRACK 34 AUDIO
    TITLE "3:cjc046_2884"
    INDEX 01 00:28:25
  TRACK 35 AUDIO
    TITLE "0:"
    INDEX 01 00:29:38
  TRACK 36 AUDIO
    TITLE "4:cjc046_2885"
    INDEX 01 00:29:58
  TRACK 37 AUDIO
    TITLE "0:"
    INDEX 01 00:31:08
  TRACK 38 AUDIO
    TITLE "2:cjc046_2886"
    INDEX 01 00:32:13
  TRACK 39 AUDIO
    TITLE "0:"
    INDEX 01 00:33:32
  TRACK 40 AUDIO
    TITLE "3:cjc046_2887"
    INDEX 01 00:33:48
  TRACK 41 AUDIO
    TITLE "0:"
    INDEX 01 00:35:53
  TRACK 42 AUDIO
    TITLE "4:cjc046_2888"
    INDEX 01 00:35:68
  TRACK 43 AUDIO
    TITLE "0:"
    INDEX 01 00:37:12
  TRACK 44 AUDIO
    TITLE "2:cjc046_2889"
    INDEX 01 00:38:31
  TRACK 45 AUDIO
    TITLE "0:"
    INDEX 01 00:39:52
  TRACK 46 AUDIO
    TITLE "3:cjc046_2890"
    INDEX 01 00:39:68
  TRACK 47 AUDIO
    TITLE "0:"
    INDEX 01 00:41:04
  TRACK 48 AUDIO
    TITLE "4:cjc046_2891"
    INDEX 01 00:41:32
  TRACK 49 AUDIO
    TITLE "0:"
    INDEX 01 00:42:53
  TRACK 50 AUDIO
    TITLE "2:cjc046_2892"
    INDEX 01 00:43:56
  TRACK 51 AUDIO
    TITLE "0:"
    INDEX 01 00:44:69
  TRACK 52 AUDIO
    TITLE "3:cjc046_2893"
    INDEX 01 00:45:12
  TRACK 53 AUDIO
    TITLE "0:"
    INDEX 01 00:46:39
  TRACK 54 AUDIO
    TITLE "4:cjc046_2894"
    INDEX 01 00:46:49
  TRACK 55 AUDIO
    TITLE "0:"
    INDEX 01 00:47:62
  TRACK 56 AUDIO
    TITLE "2:cjc046_2895"
    INDEX 01 00:48:71
  TRACK 57 AUDIO
    TITLE "0:"
    INDEX 01 00:50:01
  TRACK 58 AUDIO
    TITLE "3:cjc046_2896"
    INDEX 01 00:50:23
  TRACK 59 AUDIO
    TITLE "0:"
    INDEX 01 00:51:24
  TRACK 60 AUDIO
    TITLE "4:cjc046_2897"
    INDEX 01 00:51:42
  TRACK 61 AUDIO
    TITLE "0:"
    INDEX 01 00:52:45
  TRACK 62 AUDIO
    TITLE "2:cjc046_2898"
    INDEX 01 00:53:57
  TRACK 63 AUDIO
    TITLE "0:"
    INDEX 01 00:54:68
  TRACK 64 AUDIO
    TITLE "3:cjc046_2899"
    INDEX 01 00:55:16
  TRACK 65 AUDIO
    TITLE "0:"
    INDEX 01 00:56:12
  TRACK 66 AUDIO
    TITLE "4:cjc046_2900"
    INDEX 01 00:56:29
  TRACK 67 AUDIO
    TITLE "0:"
    INDEX 01 00:57:39
  TRACK 68 AUDIO
    TITLE "2:cjc046_2901"
    INDEX 01 00:58:50
  TRACK 69 AUDIO
    TITLE "0:"
    INDEX 01 00:59:57
  TRACK 70 AUDIO
    TITLE "3:cjc046_2902"
    INDEX 01 01:00:06
  TRACK 71 AUDIO
    TITLE "0:"
    INDEX 01 01:01:11
  TRACK 72 AUDIO
    TITLE "4:cjc046_2903"
    INDEX 01 01:01:29
  TRACK 73 AUDIO
    TITLE "0:"
    INDEX 01 01:02:38
  TRACK 74 AUDIO
    TITLE "2:cjc046_2904"
    INDEX 01 01:03:45
  TRACK 75 AUDIO
    TITLE "0:"
    INDEX 01 01:04:50
  TRACK 76 AUDIO
    TITLE "3:cjc046_2905"
    INDEX 01 01:04:64
  TRACK 77 AUDIO
    TITLE "0:"
    INDEX 01 01:06:10
  TRACK 78 AUDIO
    TITLE "4:cjc046_2906"
    INDEX 01 01:06:24
  TRACK 79 AUDIO
    TITLE "0:"
    INDEX 01 01:07:27
  TRACK 80 AUDIO
    TITLE "2:cjc046_2907"
    INDEX 01 01:08:33
  TRACK 81 AUDIO
    TITLE "0:"
    INDEX 01 01:09:42
  TRACK 82 AUDIO
    TITLE "3:cjc046_2908"
    INDEX 01 01:09:61
  TRACK 83 AUDIO
    TITLE "0:"
    INDEX 01 01:11:41
  TRACK 84 AUDIO
    TITLE "4:cjc046_2909"
    INDEX 01 01:11:47
  TRACK 85 AUDIO
    TITLE "0:"
    INDEX 01 01:12:56
  TRACK 86 AUDIO
    TITLE "2:cjc046_2910"
    INDEX 01 01:13:65
  TRACK 87 AUDIO
    TITLE "0:"
    INDEX 01 01:15:05
  TRACK 88 AUDIO
    TITLE "3:cjc046_2911"
    INDEX 01 01:15:33
  TRACK 89 AUDIO
    TITLE "0:"
    INDEX 01 01:16:36
  TRACK 90 AUDIO
    TITLE "4:cjc046_2912"
    INDEX 01 01:16:56
  TRACK 91 AUDIO
    TITLE "0:"
    INDEX 01 01:17:71
